<svg width="40" height="40" viewBox="0 0 40 40" fill="none" xmlns="http://www.w3.org/2000/svg">
<path d="M7.0167 7.31172L7.15503 7.15505C7.44202 6.86809 7.82385 6.69571 8.2289 6.67024C8.63394 6.64477 9.03436 6.76797 9.35503 7.01672L9.5117 7.15505L20 17.6417L30.4884 7.15505C30.6421 6.99587 30.826 6.8689 31.0294 6.78155C31.2327 6.6942 31.4514 6.64823 31.6727 6.6463C31.894 6.64438 32.1135 6.68655 32.3183 6.77035C32.5231 6.85415 32.7092 6.97791 32.8657 7.1344C33.0222 7.29088 33.1459 7.47697 33.2297 7.6818C33.3135 7.88662 33.3557 8.10609 33.3538 8.32739C33.3519 8.54869 33.3059 8.76739 33.2185 8.97073C33.1312 9.17407 33.0042 9.35798 32.845 9.51172L22.3584 20.0001L32.845 30.4884C33.132 30.7754 33.3044 31.1572 33.3298 31.5623C33.3553 31.9673 33.2321 32.3677 32.9834 32.6884L32.845 32.8451C32.558 33.132 32.1762 33.3044 31.7712 33.3299C31.3661 33.3553 30.9657 33.2321 30.645 32.9834L30.4884 32.8451L20 22.3584L9.5117 32.8451C9.19736 33.1487 8.77636 33.3166 8.33936 33.3128C7.90237 33.309 7.48435 33.1338 7.17534 32.8248C6.86632 32.5157 6.69104 32.0977 6.68724 31.6607C6.68345 31.2237 6.85144 30.8027 7.15503 30.4884L17.6417 20.0001L7.15503 9.51172C6.86807 9.22473 6.69569 8.8429 6.67022 8.43786C6.64475 8.03281 6.76795 7.63239 7.0167 7.31172L7.15503 7.15505L7.0167 7.31172Z" fill="#4F4F4F"/>
</svg>
