<svg width="11" height="14" viewBox="0 0 11 14" fill="none" xmlns="http://www.w3.org/2000/svg">
<path d="M1.50002 12.6667H10.4987C10.6253 12.667 10.7471 12.7152 10.8396 12.8017C10.932 12.8883 10.9882 13.0067 10.9967 13.133C11.0053 13.2593 10.9656 13.3842 10.8856 13.4824C10.8057 13.5806 10.6915 13.6448 10.566 13.6621L10.4987 13.6667H1.50002C1.37244 13.668 1.24918 13.6205 1.1555 13.5339C1.06181 13.4473 1.00479 13.3281 0.996096 13.2008C0.987405 13.0735 1.02771 12.9477 1.10875 12.8492C1.18979 12.7506 1.30544 12.6868 1.43202 12.6707L1.50002 12.6667H10.4987H1.50002ZM5.92202 0.334745L6.00002 0.330078C6.16331 0.3301 6.32091 0.390049 6.44293 0.498555C6.56496 0.607061 6.64291 0.756577 6.66202 0.918745L6.66669 0.996745V9.39008L8.86269 7.19475C8.97748 7.07996 9.13021 7.01101 9.29223 7.00082C9.45425 6.99063 9.61442 7.03991 9.74269 7.13941L9.80535 7.19541C9.92014 7.31021 9.98909 7.46294 9.99928 7.62496C10.0095 7.78697 9.96019 7.94714 9.86069 8.07541L9.80535 8.13808L6.47402 11.4687C6.35931 11.5836 6.20662 11.6527 6.0446 11.663C5.88258 11.6733 5.72237 11.6242 5.59402 11.5247L5.53135 11.4694L2.19535 8.13808C2.07452 8.01838 2.004 7.85703 1.99823 7.68705C1.99246 7.51706 2.05188 7.3513 2.16433 7.22369C2.27678 7.09608 2.43374 7.01628 2.6031 7.00061C2.77246 6.98494 2.94141 7.0346 3.07535 7.13941L3.13802 7.19475L5.33335 9.38675V0.996745C5.33337 0.833456 5.39332 0.675853 5.50183 0.55383C5.61034 0.431807 5.75985 0.35385 5.92202 0.334745L6.00002 0.330078L5.92202 0.334745Z" fill="#1F7AE0"/>
</svg>
