<svg width="40" height="40" viewBox="0 0 40 40" fill="none" xmlns="http://www.w3.org/2000/svg">
<path d="M4.99999 28.3333H35C35.4248 28.3338 35.8334 28.4964 36.1423 28.7881C36.4512 29.0797 36.6371 29.4782 36.6619 29.9023C36.6868 30.3264 36.5489 30.7439 36.2762 31.0697C36.0036 31.3955 35.6168 31.6048 35.195 31.655L35 31.6666H4.99999C4.5752 31.6662 4.16661 31.5035 3.85771 31.2119C3.54882 30.9203 3.36294 30.5217 3.33804 30.0977C3.31315 29.6736 3.45112 29.256 3.72377 28.9303C3.99642 28.6045 4.38317 28.3952 4.80499 28.345L4.99999 28.3333H35H4.99999ZM4.99999 18.3333L35 18.33C35.4248 18.3305 35.8334 18.4931 36.1423 18.7847C36.4512 19.0763 36.6371 19.4749 36.6619 19.899C36.6868 20.323 36.5489 20.7406 36.2762 21.0664C36.0036 21.3921 35.6168 21.6015 35.195 21.6516L35 21.6633L4.99999 21.6666C4.5752 21.6662 4.16661 21.5035 3.85771 21.2119C3.54882 20.9203 3.36294 20.5217 3.33804 20.0977C3.31315 19.6736 3.45112 19.256 3.72377 18.9303C3.99642 18.6045 4.38317 18.3952 4.80499 18.345L4.99999 18.3333L35 18.33L4.99999 18.3333ZM4.99999 8.33331H35C35.4248 8.33378 35.8334 8.49644 36.1423 8.78806C36.4512 9.07968 36.6371 9.47823 36.6619 9.9023C36.6868 10.3264 36.5489 10.7439 36.2762 11.0697C36.0036 11.3955 35.6168 11.6048 35.195 11.655L35 11.6666H4.99999C4.5752 11.6662 4.16661 11.5035 3.85771 11.2119C3.54882 10.9203 3.36294 10.5217 3.33804 10.0977C3.31315 9.67359 3.45112 9.25601 3.72377 8.93026C3.99642 8.6045 4.38317 8.39515 4.80499 8.34498L4.99999 8.33331H35H4.99999Z" fill="#4F4F4F"/>
</svg>
